<?xml version="1.0" encoding="UTF-8" standalone="no"?>
<!-- Created with Inkscape (http://www.inkscape.org/) -->

<svg
   xmlns:osb="http://www.openswatchbook.org/uri/2009/osb"
   xmlns:dc="http://purl.org/dc/elements/1.1/"
   xmlns:cc="http://creativecommons.org/ns#"
   xmlns:rdf="http://www.w3.org/1999/02/22-rdf-syntax-ns#"
   xmlns:svg="http://www.w3.org/2000/svg"
   xmlns="http://www.w3.org/2000/svg"
   xmlns:xlink="http://www.w3.org/1999/xlink"
   xmlns:sodipodi="http://sodipodi.sourceforge.net/DTD/sodipodi-0.dtd"
   xmlns:inkscape="http://www.inkscape.org/namespaces/inkscape"
   inkscape:version="0.48.1 "
   version="1.1"
   id="svg28616"
   height="130"
   width="600"
   sodipodi:docname="logo1.svg">
  <defs
     id="defs28618">
    <inkscape:path-effect
       effect="spiro"
       id="path-effect33081"
       is_visible="true" />
    <linearGradient
       id="linearGradient33073"
       osb:paint="solid">
      <stop
         style="stop-color:#ffffff;stop-opacity:1;"
         offset="0"
         id="stop33075" />
    </linearGradient>
    <linearGradient
       id="linearGradient33067"
       osb:paint="solid">
      <stop
         style="stop-color:#ff6600;stop-opacity:1;"
         offset="0"
         id="stop33069" />
    </linearGradient>
    <inkscape:path-effect
       effect="spiro"
       id="path-effect33017"
       is_visible="true" />
    <linearGradient
       id="linearGradient31084"
       osb:paint="solid">
      <stop
         style="stop-color:#000000;stop-opacity:1;"
         offset="0"
         id="stop31086" />
    </linearGradient>
    <linearGradient
       id="linearGradient31074"
       osb:paint="solid">
      <stop
         style="stop-color:#000000;stop-opacity:1;"
         offset="0"
         id="stop31076" />
    </linearGradient>
    <inkscape:path-effect
       is_visible="true"
       id="path-effect31060"
       effect="spiro" />
    <inkscape:path-effect
       is_visible="true"
       id="path-effect31052"
       effect="spiro" />
    <inkscape:path-effect
       effect="spiro"
       id="path-effect31048"
       is_visible="true" />
    <inkscape:path-effect
       is_visible="true"
       id="path-effect31044"
       effect="spiro" />
    <inkscape:path-effect
       effect="spiro"
       id="path-effect31040"
       is_visible="true" />
    <inkscape:path-effect
       effect="spiro"
       id="path-effect31022"
       is_visible="true" />
    <inkscape:path-effect
       is_visible="true"
       id="path-effect31016"
       effect="spiro" />
    <inkscape:path-effect
       effect="spiro"
       id="path-effect31010"
       is_visible="true" />
    <inkscape:path-effect
       is_visible="true"
       id="path-effect30428"
       effect="spiro" />
    <inkscape:path-effect
       effect="spiro"
       id="path-effect30424"
       is_visible="true" />
    <filter
       id="filter28687"
       inkscape:label="Monochrome transparency"
       x="0"
       y="0"
       width="1"
       height="1"
       inkscape:menu="Transparency utilities"
       inkscape:menu-tooltip="Convert to a colorizable transparent positive or negative"
       color-interpolation-filters="sRGB">
      <feConvolveMatrix
         id="feConvolveMatrix28689"
         order="3 3"
         kernelMatrix="0 -0.15 0 -0.15 1.6 -0.15 0 -0.15 0"
         divisor="1"
         in="SourceGraphic"
         targetX="1"
         targetY="1"
         result="fbSourceGraphic" />
      <feColorMatrix
         result="fbSourceGraphicAlpha"
         in="fbSourceGraphic"
         values="0 0 0 -1 0 0 0 0 -1 0 0 0 0 -1 0 0 0 0 1 0"
         id="feColorMatrix28721" />
      <feGaussianBlur
         id="feGaussianBlur28723"
         stdDeviation="0.5"
         result="result8"
         in="fbSourceGraphic" />
      <feConvolveMatrix
         id="feConvolveMatrix28725"
         bias="0"
         result="result0"
         preserveAlpha="true"
         targetY="1"
         targetX="1"
         divisor="1"
         in="result8"
         kernelMatrix="1 1 1 1 -8 1 1 1 1 "
         order="3 3" />
      <feColorMatrix
         id="feColorMatrix28727"
         values="0 -6 0 0 1 0 -6 0 0 1 0 -6 0 0 1 0 0 0 1 0 "
         result="result3" />
      <feComposite
         id="feComposite28729"
         in2="result3"
         k3="0.3"
         k1="1"
         operator="arithmetic"
         in="fbSourceGraphic"
         result="fbSourceGraphic"
         k2="0"
         k4="0" />
      <feGaussianBlur
         id="feGaussianBlur28731"
         stdDeviation="0.01"
         in="fbSourceGraphic"
         result="result7" />
      <feBlend
         id="feBlend28733"
         in2="result7"
         in="result7"
         mode="multiply"
         result="result9" />
      <feComposite
         id="feComposite28735"
         in2="fbSourceGraphic"
         operator="in"
         result="fbSourceGraphic" />
      <feColorMatrix
         result="fbSourceGraphicAlpha"
         in="fbSourceGraphic"
         values="0 0 0 -1 0 0 0 0 -1 0 0 0 0 -1 0 0 0 0 1 0"
         id="feColorMatrix30412" />
      <feColorMatrix
         id="feColorMatrix30414"
         type="luminanceToAlpha"
         result="fbSourceGraphic"
         in="fbSourceGraphic" />
      <feFlood
         id="feFlood30416"
         flood-color="rgb(134,39,24)"
         result="result1"
         in="fbSourceGraphic"
         flood-opacity="1" />
      <feComposite
         id="feComposite30418"
         in2="fbSourceGraphic"
         operator="out"
         result="result2" />
      <feComposite
         id="feComposite30420"
         in2="fbSourceGraphic"
         operator="in" />
    </filter>
    <linearGradient
       inkscape:collect="always"
       xlink:href="#linearGradient33073"
       id="linearGradient33077"
       x1="72.107681"
       y1="267.80417"
       x2="139.7281"
       y2="267.80417"
       gradientUnits="userSpaceOnUse" />
  </defs>
  <sodipodi:namedview
     id="base"
     pagecolor="#ffffff"
     bordercolor="#666666"
     borderopacity="1.0"
     inkscape:pageopacity="0"
     inkscape:pageshadow="2"
     inkscape:zoom="2.8"
     inkscape:cx="187.36301"
     inkscape:cy="79.29743"
     inkscape:document-units="px"
     inkscape:current-layer="layer1"
     showgrid="false"
     inkscape:window-width="1304"
     inkscape:window-height="746"
     inkscape:window-x="54"
     inkscape:window-y="-8"
     inkscape:window-maximized="1"
     fit-margin-top="5"
     fit-margin-left="5"
     fit-margin-right="5"
     fit-margin-bottom="0"
     borderlayer="false"
     inkscape:showpageshadow="true"
     units="px"
     showborder="false" />
  <metadata
     id="metadata28621">
    <rdf:RDF>
      <cc:Work
         rdf:about="">
        <dc:format>image/svg+xml</dc:format>
        <dc:type
           rdf:resource="http://purl.org/dc/dcmitype/StillImage" />
        <dc:title></dc:title>
      </cc:Work>
    </rdf:RDF>
  </metadata>
  <g
     inkscape:label="Capa 1"
     inkscape:groupmode="layer"
     id="layer1"
     style="display:inline"
     transform="translate(-1.9744451,-881.571)">
    <g
       style="fill:none;stroke:#984700;stroke-width:1;stroke-miterlimit:4;stroke-opacity:1;stroke-dasharray:none"
       id="g30365"
       transform="matrix(0.44998716,0,0,0.5317804,-10.172501,802.48483)">
      <path
         d="m 149.28571,176.6479 a 55,20.714285 0 1 1 -109.999997,0 55,20.714285 0 1 1 109.999997,0 z"
         sodipodi:ry="20.714285"
         sodipodi:rx="55"
         sodipodi:cy="176.6479"
         sodipodi:cx="94.285713"
         id="path30359"
         style="fill:none;stroke:#984700;stroke-width:1;stroke-miterlimit:4;stroke-opacity:1;stroke-dasharray:none"
         sodipodi:type="arc" />
      <path
         transform="matrix(0.28207426,0,0,0.28207426,67.130976,126.44694)"
         sodipodi:type="arc"
         style="fill:none;stroke:#984700;stroke-width:3.54516578;stroke-miterlimit:4;stroke-opacity:1;stroke-dasharray:none"
         id="path30363"
         sodipodi:cx="94.285713"
         sodipodi:cy="176.6479"
         sodipodi:rx="55"
         sodipodi:ry="20.714285"
         d="m 149.28571,176.6479 a 55,20.714285 0 1 1 -109.999997,0 55,20.714285 0 1 1 109.999997,0 z" />
    </g>
    <path
       style="fill:none;stroke:#984700;stroke-width:0.48917723;stroke-linecap:butt;stroke-linejoin:miter;stroke-miterlimit:4;stroke-opacity:1;stroke-dasharray:none"
       d="m 7.5055667,895.66303 0,97.61969"
       id="path30375"
       inkscape:connector-curvature="0" />
    <path
       style="fill:none;stroke:#984700;stroke-width:0.48917723;stroke-linecap:butt;stroke-linejoin:miter;stroke-miterlimit:4;stroke-opacity:1;stroke-dasharray:none"
       d="m 57.00416,993.20676 0,-96.86001"
       id="path30379"
       inkscape:connector-curvature="0" />
    <path
       sodipodi:type="arc"
       style="fill:none;stroke:#984700;stroke-width:1.03256679;stroke-linecap:butt;stroke-linejoin:miter;stroke-miterlimit:4;stroke-opacity:1;stroke-dasharray:none"
       id="path30381"
       sodipodi:cx="96.428574"
       sodipodi:cy="384.86218"
       sodipodi:rx="58.57143"
       sodipodi:ry="26.785715"
       d="M 155,384.86218 A 58.57143,26.785715 0 1 1 37.858704,384.66664"
       sodipodi:start="0"
       sodipodi:end="3.1488931"
       transform="matrix(0.4220499,0,0,0.5317804,-8.5100004,788.65854)"
       sodipodi:open="true" />
    <g
       id="g32845"
       transform="matrix(0.44998716,0.21603412,0,0.5317804,-10.172501,792.78377)"
       style="stroke:#ec5b00;stroke-width:2.01622033;stroke-miterlimit:4;stroke-opacity:1;stroke-dasharray:none;stroke-dashoffset:0">
      <path
         sodipodi:type="arc"
         style="fill:none;stroke:#ec5b00;stroke-width:2.08188224;stroke-linecap:butt;stroke-linejoin:miter;stroke-miterlimit:4;stroke-opacity:1;stroke-dasharray:none;stroke-dashoffset:0"
         id="path32807"
         sodipodi:cx="96.428574"
         sodipodi:cy="384.86218"
         sodipodi:rx="58.57143"
         sodipodi:ry="26.785715"
         d="m 155,384.86218 c 0,14.79334 -26.22332,26.78572 -58.571426,26.78572 -32.348108,0 -58.571431,-11.99238 -58.571431,-26.78572 0,-0.0652 5.21e-4,-0.13036 0.0016,-0.19554"
         sodipodi:start="0"
         sodipodi:end="3.1488931"
         transform="matrix(0.93791536,0,0,1,3.6945485,-70)"
         sodipodi:open="true" />
      <path
         sodipodi:open="true"
         transform="matrix(0.93791536,0,0,1,3.6945485,-78)"
         sodipodi:end="3.1488931"
         sodipodi:start="0"
         d="m 155,384.86218 c 0,14.79334 -26.22332,26.78572 -58.571426,26.78572 -32.348108,0 -58.571431,-11.99238 -58.571431,-26.78572 0,-0.0652 5.21e-4,-0.13036 0.0016,-0.19554"
         sodipodi:ry="26.785715"
         sodipodi:rx="58.57143"
         sodipodi:cy="384.86218"
         sodipodi:cx="96.428574"
         id="path32809"
         style="fill:none;stroke:#ec5b00;stroke-width:2.08188224;stroke-linecap:butt;stroke-linejoin:miter;stroke-miterlimit:4;stroke-opacity:1;stroke-dasharray:none;stroke-dashoffset:0"
         sodipodi:type="arc" />
      <path
         sodipodi:type="arc"
         style="fill:none;stroke:#ec5b00;stroke-width:2.08188224;stroke-linecap:butt;stroke-linejoin:miter;stroke-miterlimit:4;stroke-opacity:1;stroke-dasharray:none;stroke-dashoffset:0"
         id="path32811"
         sodipodi:cx="96.428574"
         sodipodi:cy="384.86218"
         sodipodi:rx="58.57143"
         sodipodi:ry="26.785715"
         d="m 155,384.86218 c 0,14.79334 -26.22332,26.78572 -58.571426,26.78572 -32.348108,0 -58.571431,-11.99238 -58.571431,-26.78572 0,-0.0652 5.21e-4,-0.13036 0.0016,-0.19554"
         sodipodi:start="0"
         sodipodi:end="3.1488931"
         transform="matrix(0.93791536,0,0,1,3.6945485,-86)"
         sodipodi:open="true" />
      <path
         sodipodi:open="true"
         transform="matrix(0.93791536,0,0,1,3.6945485,-94)"
         sodipodi:end="3.1488931"
         sodipodi:start="0"
         d="m 155,384.86218 c 0,14.79334 -26.22332,26.78572 -58.571426,26.78572 -32.348108,0 -58.571431,-11.99238 -58.571431,-26.78572 0,-0.0652 5.21e-4,-0.13036 0.0016,-0.19554"
         sodipodi:ry="26.785715"
         sodipodi:rx="58.57143"
         sodipodi:cy="384.86218"
         sodipodi:cx="96.428574"
         id="path32813"
         style="fill:none;stroke:#ec5b00;stroke-width:2.08188224;stroke-linecap:butt;stroke-linejoin:miter;stroke-miterlimit:4;stroke-opacity:1;stroke-dasharray:none;stroke-dashoffset:0"
         sodipodi:type="arc" />
      <path
         sodipodi:type="arc"
         style="fill:none;stroke:#ec5b00;stroke-width:2.08188224;stroke-linecap:butt;stroke-linejoin:miter;stroke-miterlimit:4;stroke-opacity:1;stroke-dasharray:none;stroke-dashoffset:0"
         id="path32815"
         sodipodi:cx="96.428574"
         sodipodi:cy="384.86218"
         sodipodi:rx="58.57143"
         sodipodi:ry="26.785715"
         d="m 155,384.86218 c 0,14.79334 -26.22332,26.78572 -58.571426,26.78572 -32.348108,0 -58.571431,-11.99238 -58.571431,-26.78572 0,-0.0652 5.21e-4,-0.13036 0.0016,-0.19554"
         sodipodi:start="0"
         sodipodi:end="3.1488931"
         transform="matrix(0.93791536,0,0,1,3.6945485,-102)"
         sodipodi:open="true" />
      <path
         sodipodi:open="true"
         transform="matrix(0.93791536,0,0,1,3.6945485,-110)"
         sodipodi:end="3.1488931"
         sodipodi:start="0"
         d="m 155,384.86218 c 0,14.79334 -26.22332,26.78572 -58.571426,26.78572 -32.348108,0 -58.571431,-11.99238 -58.571431,-26.78572 0,-0.0652 5.21e-4,-0.13036 0.0016,-0.19554"
         sodipodi:ry="26.785715"
         sodipodi:rx="58.57143"
         sodipodi:cy="384.86218"
         sodipodi:cx="96.428574"
         id="path32817"
         style="fill:none;stroke:#ec5b00;stroke-width:2.08188224;stroke-linecap:butt;stroke-linejoin:miter;stroke-miterlimit:4;stroke-opacity:1;stroke-dasharray:none;stroke-dashoffset:0"
         sodipodi:type="arc" />
      <path
         sodipodi:type="arc"
         style="fill:none;stroke:#ec5b00;stroke-width:2.08188224;stroke-linecap:butt;stroke-linejoin:miter;stroke-miterlimit:4;stroke-opacity:1;stroke-dasharray:none;stroke-dashoffset:0"
         id="path32819"
         sodipodi:cx="96.428574"
         sodipodi:cy="384.86218"
         sodipodi:rx="58.57143"
         sodipodi:ry="26.785715"
         d="m 155,384.86218 c 0,14.79334 -26.22332,26.78572 -58.571426,26.78572 -32.348108,0 -58.571431,-11.99238 -58.571431,-26.78572 0,-0.0652 5.21e-4,-0.13036 0.0016,-0.19554"
         sodipodi:start="0"
         sodipodi:end="3.1488931"
         transform="matrix(0.93791536,0,0,1,3.6945485,-118)"
         sodipodi:open="true" />
      <path
         sodipodi:open="true"
         transform="matrix(0.93791536,0,0,1,3.6945485,-126)"
         sodipodi:end="3.1488931"
         sodipodi:start="0"
         d="m 155,384.86218 c 0,14.79334 -26.22332,26.78572 -58.571426,26.78572 -32.348108,0 -58.571431,-11.99238 -58.571431,-26.78572 0,-0.0652 5.21e-4,-0.13036 0.0016,-0.19554"
         sodipodi:ry="26.785715"
         sodipodi:rx="58.57143"
         sodipodi:cy="384.86218"
         sodipodi:cx="96.428574"
         id="path32821"
         style="fill:none;stroke:#ec5b00;stroke-width:2.08188224;stroke-linecap:butt;stroke-linejoin:miter;stroke-miterlimit:4;stroke-opacity:1;stroke-dasharray:none;stroke-dashoffset:0"
         sodipodi:type="arc" />
      <path
         sodipodi:type="arc"
         style="fill:none;stroke:#ec5b00;stroke-width:2.08188224;stroke-linecap:butt;stroke-linejoin:miter;stroke-miterlimit:4;stroke-opacity:1;stroke-dasharray:none;stroke-dashoffset:0"
         id="path32823"
         sodipodi:cx="96.428574"
         sodipodi:cy="384.86218"
         sodipodi:rx="58.57143"
         sodipodi:ry="26.785715"
         d="m 155,384.86218 c 0,14.79334 -26.22332,26.78572 -58.571426,26.78572 -32.348108,0 -58.571431,-11.99238 -58.571431,-26.78572 0,-0.0652 5.21e-4,-0.13036 0.0016,-0.19554"
         sodipodi:start="0"
         sodipodi:end="3.1488931"
         transform="matrix(0.93791536,0,0,1,3.6945485,-134)"
         sodipodi:open="true" />
      <path
         sodipodi:open="true"
         transform="matrix(0.93791536,0,0,1,3.6945485,-142)"
         sodipodi:end="3.1488931"
         sodipodi:start="0"
         d="m 155,384.86218 c 0,14.79334 -26.22332,26.78572 -58.571426,26.78572 -32.348108,0 -58.571431,-11.99238 -58.571431,-26.78572 0,-0.0652 5.21e-4,-0.13036 0.0016,-0.19554"
         sodipodi:ry="26.785715"
         sodipodi:rx="58.57143"
         sodipodi:cy="384.86218"
         sodipodi:cx="96.428574"
         id="path32825"
         style="fill:none;stroke:#ec5b00;stroke-width:2.08188224;stroke-linecap:butt;stroke-linejoin:miter;stroke-miterlimit:4;stroke-opacity:1;stroke-dasharray:none;stroke-dashoffset:0"
         sodipodi:type="arc" />
      <path
         sodipodi:type="arc"
         style="fill:none;stroke:#ec5b00;stroke-width:2.08188224;stroke-linecap:butt;stroke-linejoin:miter;stroke-miterlimit:4;stroke-opacity:1;stroke-dasharray:none;stroke-dashoffset:0"
         id="path32827"
         sodipodi:cx="96.428574"
         sodipodi:cy="384.86218"
         sodipodi:rx="58.57143"
         sodipodi:ry="26.785715"
         d="m 155,384.86218 c 0,14.79334 -26.22332,26.78572 -58.571426,26.78572 -32.348108,0 -58.571431,-11.99238 -58.571431,-26.78572 0,-0.0652 5.21e-4,-0.13036 0.0016,-0.19554"
         sodipodi:start="0"
         sodipodi:end="3.1488931"
         transform="matrix(0.93791536,0,0,1,3.6945485,-150)"
         sodipodi:open="true" />
      <path
         sodipodi:open="true"
         transform="matrix(0.93791536,0,0,1,3.6945485,-158)"
         sodipodi:end="3.1488931"
         sodipodi:start="0"
         d="m 155,384.86218 c 0,14.79334 -26.22332,26.78572 -58.571426,26.78572 -32.348108,0 -58.571431,-11.99238 -58.571431,-26.78572 0,-0.0652 5.21e-4,-0.13036 0.0016,-0.19554"
         sodipodi:ry="26.785715"
         sodipodi:rx="58.57143"
         sodipodi:cy="384.86218"
         sodipodi:cx="96.428574"
         id="path32829"
         style="fill:none;stroke:#ec5b00;stroke-width:2.08188224;stroke-linecap:butt;stroke-linejoin:miter;stroke-miterlimit:4;stroke-opacity:1;stroke-dasharray:none;stroke-dashoffset:0"
         sodipodi:type="arc" />
      <path
         sodipodi:type="arc"
         style="fill:none;stroke:#ec5b00;stroke-width:2.08188224;stroke-linecap:butt;stroke-linejoin:miter;stroke-miterlimit:4;stroke-opacity:1;stroke-dasharray:none;stroke-dashoffset:0"
         id="path32831"
         sodipodi:cx="96.428574"
         sodipodi:cy="384.86218"
         sodipodi:rx="58.57143"
         sodipodi:ry="26.785715"
         d="m 155,384.86218 c 0,14.79334 -26.22332,26.78572 -58.571426,26.78572 -32.348108,0 -58.571431,-11.99238 -58.571431,-26.78572 0,-0.0652 5.21e-4,-0.13036 0.0016,-0.19554"
         sodipodi:start="0"
         sodipodi:end="3.1488931"
         transform="matrix(0.93791536,0,0,1,3.6945485,-166)"
         sodipodi:open="true" />
      <path
         sodipodi:open="true"
         transform="matrix(0.93791536,0,0,1,3.6945485,-174)"
         sodipodi:end="3.1488931"
         sodipodi:start="0"
         d="m 155,384.86218 c 0,14.79334 -26.22332,26.78572 -58.571426,26.78572 -32.348108,0 -58.571431,-11.99238 -58.571431,-26.78572 0,-0.0652 5.21e-4,-0.13036 0.0016,-0.19554"
         sodipodi:ry="26.785715"
         sodipodi:rx="58.57143"
         sodipodi:cy="384.86218"
         sodipodi:cx="96.428574"
         id="path32833"
         style="fill:none;stroke:#ec5b00;stroke-width:2.08188224;stroke-linecap:butt;stroke-linejoin:miter;stroke-miterlimit:4;stroke-opacity:1;stroke-dasharray:none;stroke-dashoffset:0"
         sodipodi:type="arc" />
      <path
         sodipodi:type="arc"
         style="fill:none;stroke:#ec5b00;stroke-width:2.08188224;stroke-linecap:butt;stroke-linejoin:miter;stroke-miterlimit:4;stroke-opacity:1;stroke-dasharray:none;stroke-dashoffset:0"
         id="path32835"
         sodipodi:cx="96.428574"
         sodipodi:cy="384.86218"
         sodipodi:rx="58.57143"
         sodipodi:ry="26.785715"
         d="m 155,384.86218 c 0,14.79334 -26.22332,26.78572 -58.571426,26.78572 -32.348108,0 -58.571431,-11.99238 -58.571431,-26.78572 0,-0.0652 5.21e-4,-0.13036 0.0016,-0.19554"
         sodipodi:start="0"
         sodipodi:end="3.1488931"
         transform="matrix(0.93791536,0,0,1,3.6945485,-182)"
         sodipodi:open="true" />
      <path
         sodipodi:open="true"
         transform="matrix(0.93791536,0,0,1,3.6945485,-190)"
         sodipodi:end="3.1488931"
         sodipodi:start="0"
         d="m 155,384.86218 c 0,14.79334 -26.22332,26.78572 -58.571426,26.78572 -32.348108,0 -58.571431,-11.99238 -58.571431,-26.78572 0,-0.0652 5.21e-4,-0.13036 0.0016,-0.19554"
         sodipodi:ry="26.785715"
         sodipodi:rx="58.57143"
         sodipodi:cy="384.86218"
         sodipodi:cx="96.428574"
         id="path32837"
         style="fill:none;stroke:#ec5b00;stroke-width:2.08188224;stroke-linecap:butt;stroke-linejoin:miter;stroke-miterlimit:4;stroke-opacity:1;stroke-dasharray:none;stroke-dashoffset:0"
         sodipodi:type="arc" />
      <path
         sodipodi:type="arc"
         style="fill:none;stroke:#ec5b00;stroke-width:2.08188224;stroke-linecap:butt;stroke-linejoin:miter;stroke-miterlimit:4;stroke-opacity:1;stroke-dasharray:none;stroke-dashoffset:0"
         id="path32839"
         sodipodi:cx="96.428574"
         sodipodi:cy="384.86218"
         sodipodi:rx="58.57143"
         sodipodi:ry="26.785715"
         d="m 155,384.86218 c 0,14.79334 -26.22332,26.78572 -58.571426,26.78572 -32.348108,0 -58.571431,-11.99238 -58.571431,-26.78572 0,-0.0652 5.21e-4,-0.13036 0.0016,-0.19554"
         sodipodi:start="0"
         sodipodi:end="3.1488931"
         transform="matrix(0.93791536,0,0,1,3.6945485,-198)"
         sodipodi:open="true" />
      <path
         sodipodi:open="true"
         transform="matrix(0.93791536,0,0,1,3.6945485,-206)"
         sodipodi:end="3.1488931"
         sodipodi:start="0"
         d="m 155,384.86218 c 0,14.79334 -26.22332,26.78572 -58.571426,26.78572 -32.348108,0 -58.571431,-11.99238 -58.571431,-26.78572 0,-0.0652 5.21e-4,-0.13036 0.0016,-0.19554"
         sodipodi:ry="26.785715"
         sodipodi:rx="58.57143"
         sodipodi:cy="384.86218"
         sodipodi:cx="96.428574"
         id="path32841"
         style="fill:none;stroke:#ec5b00;stroke-width:2.08188224;stroke-linecap:butt;stroke-linejoin:miter;stroke-miterlimit:4;stroke-opacity:1;stroke-dasharray:none;stroke-dashoffset:0"
         sodipodi:type="arc" />
    </g>
    <path
       sodipodi:type="arc"
       style="fill:none;stroke:#ec5b00;stroke-width:2.08188224;stroke-linecap:butt;stroke-linejoin:miter;stroke-miterlimit:4;stroke-opacity:1;stroke-dasharray:none;stroke-dashoffset:0"
       id="path32933"
       sodipodi:cx="96.428574"
       sodipodi:cy="384.86218"
       sodipodi:rx="58.57143"
       sodipodi:ry="26.785715"
       d="M 75.586821,409.89474 A 58.57143,26.785715 0 0 1 37.857439,384.94732"
       sodipodi:start="1.9346035"
       sodipodi:end="3.1384142"
       transform="matrix(0.4220499,0.20262172,0,0.5317804,-8.5100004,773.37426)"
       sodipodi:open="true" />
    <path
       transform="matrix(0.4220499,0.20262172,0,0.5317804,-8.5100004,769.12002)"
       sodipodi:end="3.1488931"
       sodipodi:start="1.5936548"
       d="M 95.089837,411.6409 A 58.57143,26.785715 0 0 1 37.858704,384.66664"
       sodipodi:ry="26.785715"
       sodipodi:rx="58.57143"
       sodipodi:cy="384.86218"
       sodipodi:cx="96.428574"
       id="path32935"
       style="fill:none;stroke:#ec5b00;stroke-width:2.08188224;stroke-linecap:butt;stroke-linejoin:miter;stroke-miterlimit:4;stroke-opacity:1;stroke-dasharray:none;stroke-dashoffset:0"
       sodipodi:type="arc"
       sodipodi:open="true" />
    <path
       sodipodi:type="arc"
       style="fill:none;stroke:#ec5b00;stroke-width:2.08188224;stroke-linecap:butt;stroke-linejoin:miter;stroke-miterlimit:4;stroke-opacity:1;stroke-dasharray:none;stroke-dashoffset:0"
       id="path32937"
       sodipodi:cx="96.428574"
       sodipodi:cy="384.86218"
       sodipodi:rx="58.57143"
       sodipodi:ry="26.785715"
       d="M 116.34208,410.05228 A 58.57143,26.785715 0 0 1 37.858704,384.66664"
       sodipodi:start="1.2238936"
       sodipodi:end="3.1488931"
       transform="matrix(0.4220499,0.20262172,0,0.5317804,-8.5100004,764.86578)"
       sodipodi:open="true" />
    <path
       transform="matrix(0.4220499,0.20262172,0,0.5317804,-8.5100004,760.61153)"
       sodipodi:end="3.1488931"
       sodipodi:start="0.8661528"
       d="M 134.36894,405.26868 A 58.57143,26.785715 0 0 1 37.858704,384.66664"
       sodipodi:ry="26.785715"
       sodipodi:rx="58.57143"
       sodipodi:cy="384.86218"
       sodipodi:cx="96.428574"
       id="path32939"
       style="fill:none;stroke:#ec5b00;stroke-width:2.08188224;stroke-linecap:butt;stroke-linejoin:miter;stroke-miterlimit:4;stroke-opacity:1;stroke-dasharray:none;stroke-dashoffset:0"
       sodipodi:type="arc"
       sodipodi:open="true" />
    <path
       sodipodi:open="true"
       transform="matrix(0.4220499,0.20262172,0,0.5317804,-8.5100004,679.78091)"
       sodipodi:end="2.4897516"
       sodipodi:start="0"
       d="M 155,384.86218 A 58.57143,26.785715 0 0 1 49.866145,401.11176"
       sodipodi:ry="26.785715"
       sodipodi:rx="58.57143"
       sodipodi:cy="384.86218"
       sodipodi:cx="96.428574"
       id="path32945"
       style="fill:none;stroke:#ec5b00;stroke-width:2.08188224;stroke-linecap:butt;stroke-linejoin:miter;stroke-miterlimit:4;stroke-opacity:1;stroke-dasharray:none;stroke-dashoffset:0"
       sodipodi:type="arc" />
    <path
       sodipodi:type="arc"
       style="fill:none;stroke:#ec5b00;stroke-width:2.08188224;stroke-linecap:butt;stroke-linejoin:miter;stroke-miterlimit:4;stroke-opacity:1;stroke-dasharray:none;stroke-dashoffset:0"
       id="path32947"
       sodipodi:cx="96.428574"
       sodipodi:cy="384.86218"
       sodipodi:rx="58.57143"
       sodipodi:ry="26.785715"
       d="M 155,384.86218 A 58.57143,26.785715 0 0 1 67.938396,408.26557"
       sodipodi:start="0"
       sodipodi:end="2.0787813"
       transform="matrix(0.4220499,0.20262172,0,0.5317804,-8.5100004,675.52667)"
       sodipodi:open="true" />
    <path
       sodipodi:open="true"
       transform="matrix(0.4220499,0.20262172,0,0.5317804,-8.5100004,671.27242)"
       sodipodi:end="1.7260567"
       sodipodi:start="0"
       d="M 155,384.86218 A 58.57143,26.785715 0 0 1 87.371243,411.3257"
       sodipodi:ry="26.785715"
       sodipodi:rx="58.57143"
       sodipodi:cy="384.86218"
       sodipodi:cx="96.428574"
       id="path32949"
       style="fill:none;stroke:#ec5b00;stroke-width:2.08188224;stroke-linecap:butt;stroke-linejoin:miter;stroke-miterlimit:4;stroke-opacity:1;stroke-dasharray:none;stroke-dashoffset:0"
       sodipodi:type="arc" />
    <path
       sodipodi:type="arc"
       style="fill:none;stroke:#ec5b00;stroke-width:2.08188224;stroke-linecap:butt;stroke-linejoin:miter;stroke-miterlimit:4;stroke-opacity:1;stroke-dasharray:none;stroke-dashoffset:0"
       id="path32951"
       sodipodi:cx="96.428574"
       sodipodi:cy="384.86218"
       sodipodi:rx="58.57143"
       sodipodi:ry="26.785715"
       d="m 155,384.86218 a 58.57143,26.785715 0 0 1 -49.02038,26.42719"
       sodipodi:start="0"
       sodipodi:end="1.4069983"
       transform="matrix(0.4220499,0.20262172,0,0.5317804,-8.5100004,667.01818)"
       sodipodi:open="true" />
    <path
       sodipodi:open="true"
       transform="matrix(0.4220499,0.20262172,0,0.5317804,-8.5100004,662.76394)"
       sodipodi:end="0.93356989"
       sodipodi:start="0"
       d="m 155,384.86218 a 58.57143,26.785715 0 0 1 -23.72327,21.529"
       sodipodi:ry="26.785715"
       sodipodi:rx="58.57143"
       sodipodi:cy="384.86218"
       sodipodi:cx="96.428574"
       id="path32953"
       style="fill:none;stroke:#ec5b00;stroke-width:2.08188224;stroke-linecap:butt;stroke-linejoin:miter;stroke-miterlimit:4;stroke-opacity:1;stroke-dasharray:none;stroke-dashoffset:0"
       sodipodi:type="arc" />
    <path
       id="path35895"
       style="fill:none;stroke:#ec5b00;stroke-width:0.986;stroke-linecap:butt;stroke-linejoin:miter;stroke-miterlimit:4;stroke-opacity:1;stroke-dasharray:none;stroke-dashoffset:0"
       d="m 56.853916,977.59717 c 3.044123,3.26308 7.651706,4.9976 12.091956,4.55199 2.398673,-0.24072 4.737998,-1.09157 6.710689,-2.47723 1.972691,-1.38567 3.57159,-3.30597 4.544839,-5.5115 1.598711,-3.62292 1.457359,-7.73197 1.70676,-11.68409 0.187449,-2.97039 0.619328,-5.95543 1.696593,-8.72994 1.077264,-2.7745 2.841257,-5.34178 5.303241,-7.01421 3.16746,-2.15166 7.261426,-2.64906 11.026057,-1.94907 4.118819,0.76584 7.916999,2.87168 11.063929,5.63718 3.14693,2.76551 5.67569,6.17415 7.82038,9.77297 0.95814,1.60778 1.84954,3.26593 3.01133,4.73331 1.1618,1.46739 2.63292,2.7544 4.4062,3.35313 0.81366,0.27472 1.67307,0.39865 2.5314,0.42692 1.07895,0.0355 2.20099,-0.091 3.12906,-0.64249 0.55558,-0.33011 1.01888,-0.80031 1.39859,-1.32324 0.37971,-0.52294 0.67956,-1.09928 0.95492,-1.68393 0.98369,-2.0886 1.68065,-4.39463 1.41412,-6.68786 -0.2159,-1.85762 -1.06421,-3.61293 -2.26546,-5.04623 -1.35917,-1.62172 -3.16381,-2.8481 -5.13362,-3.62087 -3.62506,-1.42214 -7.76325,-1.29376 -11.43635,-7.5e-4 -3.87741,1.36493 -7.23335,3.94988 -10.03981,6.95339 -3.70985,3.97033 -6.56551,8.73777 -8.295659,13.88879 -1.83411,5.46055 -2.396384,11.35723 -1.51716,17.05008 0.843323,5.46039 3.079859,10.81192 6.959019,14.74628 1.71013,1.7345 3.73248,3.1819 5.99035,4.0956 2.25788,0.9138 4.75633,1.2802 7.16196,0.8983 2.77372,-0.4404 5.29103,-1.8306 7.75652,-3.1756 2.46548,-1.3449 5.01679,-2.6912 7.80481,-3.0294 2.61034,-0.3167 5.23855,0.2748 7.78638,0.9249 2.54783,0.6502 5.12307,1.3687 7.7519,1.3104 2.63313,-0.058 5.21097,-0.9053 7.51089,-2.1887 2.29992,-1.28343 4.33796,-2.99329 6.20867,-4.84727 6.1622,-6.10711 10.62199,-13.91451 12.75244,-22.32466 2.13044,-8.41015 1.92549,-17.39922 -0.58603,-25.70354 -6.23412,-3.39582 -12.9569,-5.8929 -19.89621,-7.39017 -2.9748,-0.64186 -6.08826,-1.09768 -9.0403,-0.35816 -1.47602,0.36976 -2.88938,1.04411 -4.02743,2.05416 -1.13805,1.01005 -1.98902,2.36645 -2.28665,3.85869 -0.2212,1.10906 -0.13436,2.27327 0.21366,3.3493 0.34802,1.07603 0.95352,2.06353 1.72769,2.88792 1.54834,1.64877 3.73835,2.61187 5.97805,2.92736 2.2397,0.31549 4.53123,0.0198 6.71533,-0.568 2.18409,-0.58783 4.27845,-1.46251 6.3689,-2.32612 7.04865,-2.91193 14.31118,-5.83536 19.89669,-11.02813 1.99837,-1.85786 3.74125,-3.97225 5.68132,-5.89091 1.94007,-1.91865 4.13036,-3.66996 6.70129,-4.58399 1.35868,-0.48305 2.80925,-0.72213 4.24919,-0.64526 1.43995,0.0769 2.86813,0.47384 4.1145,1.19903 1.24638,0.72518 2.30583,1.78231 2.9864,3.0536 0.68058,1.27128 0.97314,2.75581 0.77264,4.1838 -0.16962,1.20809 -0.68469,2.35582 -1.41158,3.33555 -0.7269,0.97973 -1.66107,1.79558 -2.68795,2.45418 -2.05377,1.3172 -4.44112,2.00051 -6.80164,2.6177 -3.32927,0.87048 -6.72427,1.64867 -10.16522,1.60739 -3.44094,-0.0413 -6.97159,-0.97172 -9.60639,-3.18523 -2.33692,-1.96325 -3.81143,-4.79699 -4.6437,-7.73346 -0.83226,-2.93647 -1.07338,-6.00302 -1.31206,-9.04581 -0.14445,-1.84148 -0.28822,-3.70915 0.0577,-5.52359 0.17298,-0.90722 0.46984,-1.79563 0.93057,-2.59607 0.46073,-0.80043 1.08908,-1.51153 1.86112,-2.01841 0.90302,-0.59288 1.98892,-0.89267 3.06915,-0.88541 1.08023,0.007 2.15204,0.31684 3.08967,0.85333 1.87524,1.07296 3.15835,3.02255 3.69131,5.11629 0.53296,2.09374 0.36761,4.31931 -0.17473,6.41064 -0.54233,2.09133 -1.44914,4.06864 -2.4042,6.00659 -1.63638,3.32045 -3.45885,6.65898 -3.90603,10.33364 -0.55839,4.58859 1.09098,9.15252 1.24686,13.77233 0.19772,5.85993 -1.99836,11.50058 -3.10957,17.25759 -0.5556,2.8785 -0.84073,5.84256 -0.4148,8.74309 0.42594,2.90053 1.60678,5.7477 3.67146,7.82894 2.58032,2.60101 6.49148,3.80561 10.08804,3.107 3.59656,-0.6986 6.77237,-3.27978 8.19135,-6.65762"
       inkscape:path-effect="#path-effect33017"
       inkscape:original-d="m 56.853916,977.59717 c 8.063351,-7.39259 2.813935,10.34737 12.091956,4.55199 8.884001,-6.24545 13.088018,4.3716 11.255528,-7.98873 -1.832504,-12.36035 0.114229,-10.55809 1.70676,-11.68409 1.592531,-1.12601 2.475691,-12.20602 6.999834,-15.74415 2.940022,-2.29925 7.414169,-2.88958 11.026057,-1.94907 7.862469,2.04735 18.479299,14.23692 18.884309,15.41015 0.40497,1.17324 6.56559,7.36106 7.41753,8.08644 0.85196,0.72539 1.49621,0.37395 2.5314,0.42692 0.99354,0.0509 2.24554,-0.0811 3.12906,-0.64249 0.88351,-0.56141 1.77466,-2.01245 2.35351,-3.00717 1.15773,-1.98944 1.78423,-4.28391 1.41412,-6.68786 -0.37012,-2.40399 -0.82062,-3.36493 -2.26546,-5.04623 -1.44485,-1.68131 -3.2421,-2.86501 -5.13362,-3.62087 -3.68051,-1.47079 -7.72269,-1.33929 -11.43635,-7.5e-4 -3.71365,1.33882 -7.10904,3.84447 -10.03981,6.95339 -3.56941,3.78636 -6.50499,8.52534 -8.295659,13.88879 -1.79067,5.36347 -2.40798,11.35633 -1.51716,17.05008 0.89083,5.69375 3.325229,11.05375 6.959019,14.74628 3.6338,3.6925 8.46786,5.6319 13.15231,4.9939 4.48351,-0.6107 14.21181,-3.9817 15.56133,-6.205 1.34952,-2.22333 5.03575,5.1768 15.53828,2.2353 10.50253,-2.9414 12.68412,29.9794 13.71956,-7.03597 1.03544,-37.01536 12.16641,-48.0282 12.16641,-48.0282 0,0 -4.62349,-9.53155 -19.89621,-7.39017 -15.27272,2.14138 -17.66296,-0.24318 -15.35438,5.55469 2.30857,5.79788 7.54292,13.91827 21.00363,6.27046 6.39294,-3.63219 16.14034,-7.71308 19.89669,-11.02813 2.38685,-2.10644 7.92433,-9.24308 12.38261,-10.4749 3.06144,-0.84588 9.11717,7.17642 12.12273,7.79117 13.46071,2.7532 -4.99277,7.61659 -10.90117,8.40743 -5.90841,0.79083 -12.80307,3.99037 -19.77161,-1.57784 -2.36575,-1.89033 -4.15086,-7.92772 -5.95576,-16.77927 -0.40823,-2.00204 0.7448,-10.13807 2.84944,-10.13807 8.73197,0 10.62477,4.82535 7.2712,17.50144 -1.02077,3.85839 -2.87912,6.55019 -3.90603,10.33364 -1.00091,3.68769 0.74761,8.51484 1.24686,13.77233 0.54776,5.76821 -1.00474,27.96186 0.14709,33.82962 2.41405,12.29807 18.27939,-3.55062 18.27939,-3.55062"
       inkscape:connector-curvature="0"
       sodipodi:nodetypes="ccszaacsccsssssssssszzscszsssszsssssssc" />
    <text
       xml:space="preserve"
       style="font-size:40px;font-style:normal;font-variant:normal;font-weight:normal;font-stretch:normal;line-height:125%;letter-spacing:0px;word-spacing:0px;fill:#ec5b00;fill-opacity:1;stroke:none;font-family:Agency FB;-inkscape-font-specification:Agency FB"
       x="241.97444"
       y="971.57098"
       id="text36098"
       sodipodi:linespacing="125%"><tspan
         sodipodi:role="line"
         id="tspan36100"
         x="241.97444"
         y="971.57098"
         style="fill:#ec5b00;fill-opacity:1;stroke:none;font-family:Segoe Script;-inkscape-font-specification:Segoe Script">CarmenTapices</tspan></text>
  </g>
  <g
     inkscape:groupmode="layer"
     id="layer4"
     inkscape:label="Capa"
     style="display:inline"
     transform="translate(-1.9744451,-881.571)">
    <text
       xml:space="preserve"
       style="font-size:40px;font-style:normal;font-variant:normal;font-weight:normal;font-stretch:normal;line-height:125%;letter-spacing:0px;word-spacing:0px;fill:#000000;fill-opacity:1;stroke:none;font-family:Rope MF;-inkscape-font-specification:Rope MF"
       x="87.88327"
       y="169.99393"
       id="text33033"
       sodipodi:linespacing="125%"><tspan
         sodipodi:role="line"
         id="tspan33035"
         x="87.88327"
         y="169.99393"></tspan></text>
  </g>
</svg>
